<?xml version="1.0" encoding="UTF-8"?>
<svg id="Calque_1" data-name="Calque 1" xmlns="http://www.w3.org/2000/svg" viewBox="0 0 595.28 841.89">
  <defs>
    <style>
      .cls-1 {
        opacity: .95;
      }

      .cls-1, .cls-2, .cls-3, .cls-4, .cls-5, .cls-6, .cls-7, .cls-8, .cls-9, .cls-10, .cls-11, .cls-12 {
        stroke-miterlimit: 10;
      }

      .cls-1, .cls-2, .cls-5, .cls-7, .cls-9, .cls-10, .cls-11, .cls-12 {
        stroke: #fff;
      }

      .cls-1, .cls-5, .cls-7, .cls-9, .cls-10 {
        stroke-width: 2px;
      }

      .cls-1, .cls-9 {
        fill: none;
      }

      .cls-2 {
        stroke-width: 2.21px;
      }

      .cls-3, .cls-4 {
        stroke: #1d1d1b;
      }

      .cls-3, .cls-4, .cls-6, .cls-8 {
        stroke-width: .5px;
      }

      .cls-4 {
        fill: #d41516;
      }

      .cls-5 {
        fill: #1d1d1b;
      }

      .cls-6 {
        fill: #f8ac17;
      }

      .cls-6, .cls-8 {
        stroke: #000;
      }

      .cls-7, .cls-8, .cls-11, .cls-12 {
        fill: #fff;
      }

      .cls-8 {
        font-family: ShowcardGothic-Reg, 'Showcard Gothic';
        font-size: 18.39px;
      }

      .cls-11 {
        stroke-width: 1.41px;
      }

      .cls-12 {
        stroke-width: .5px;
      }
    </style>
  </defs>
  <path class="cls-9" d="m355.21,44.16c1.29.91,1.61,1.08,1.63,1.05.29-.38-21.08-13.06-27.49-17.88-.53-.4-2.11-1.61-4.07-1.42-2.1.2-3.36,1.9-3.46,2.04-.09.12-1.39,1.99-.81,4.07.46,1.68,1.62,1.63,3.26,4.07.77,1.15,1.55,2.3,1.63,3.91.02.37.12,3.11-1.99,4.67-1.68,1.25-3.64.9-4.32.78-2.33-.41-3.69-1.97-4.07-2.44"/>
  <ellipse class="cls-2" cx="344.24" cy="63.82" rx="22.44" ry="21.12"/>
  <g>
    <circle class="cls-7" cx="344.99" cy="51.94" r="4.22"/>
    <g>
      <circle class="cls-7" cx="337.39" cy="73.89" r="4.22"/>
      <circle class="cls-7" cx="333.05" cy="59.56" r="4.22"/>
      <circle class="cls-7" cx="350.97" cy="72.83" r="4.22"/>
    </g>
  </g>
  <circle class="cls-7" cx="355.43" cy="60.45" r="4.22"/>
  <path class="cls-11" d="m406.81,40.33c.41-2.83,3.09-4.82,5.88-4.58,2.45.21,4.53,2.11,4.86,4.58"/>
  <path class="cls-10" d="m379.05,58.74c-.03-4.77-.06-9.55-.09-14.32.11-.68.39-1.84,1.3-2.73,1.26-1.24,3.04-1.34,3.65-1.34,19.32,0,38.63,0,57.95,0,.27,0,2.15.05,3.44,1.53,1.04,1.19,1.03,2.53,1.01,2.88.07,12.4.14,24.79.2,37.19.04.43.11,1.99-1.01,3.45-1.2,1.58-3.15,1.97-3.85,2.11-3.58.71-26.53.89-57.94.46-.68,0-2.42-.1-3.46-1.35-.71-.85-.79-1.89-.82-2.34-.14-2.55-.32-12.28-.38-25.52Z"/>
  <path class="cls-9" d="m412.69,35.73c3.85-3.77,7.7-7.54,11.55-11.31"/>
  <path class="cls-9" d="m408.03,28.64c1.55,2.36,3.11,4.73,4.66,7.09"/>
  <rect class="cls-12" x="355.41" y="44.34" width="76.57" height="39.39" rx="1.79" ry="1.79"/>
  <g>
    <rect class="cls-3" x="364.72" y="45.34" width="3.91" height="5.8" rx=".91" ry=".91"/>
    <rect class="cls-3" x="372.22" y="45.34" width="3.91" height="5.8" rx=".91" ry=".91"/>
    <rect class="cls-3" x="380.11" y="45.34" width="3.91" height="5.8" rx=".91" ry=".91"/>
    <rect class="cls-3" x="387.81" y="45.34" width="3.91" height="5.8" rx=".91" ry=".91"/>
    <rect class="cls-3" x="395.31" y="45.34" width="3.91" height="5.8" rx=".91" ry=".91"/>
    <rect class="cls-3" x="403.13" y="45.34" width="3.91" height="5.8" rx=".91" ry=".91"/>
    <rect class="cls-3" x="410.83" y="45.34" width="3.91" height="5.8" rx=".91" ry=".91"/>
    <rect class="cls-3" x="418.46" y="45.34" width="3.91" height="5.8" rx=".91" ry=".91"/>
    <rect class="cls-3" x="426.02" y="45.34" width="3.91" height="5.8" rx=".91" ry=".91"/>
    <rect class="cls-3" x="357.02" y="45.34" width="3.91" height="5.8" rx=".91" ry=".91"/>
  </g>
  <g>
    <rect class="cls-3" x="357.06" y="76.97" width="3.91" height="5.8" rx=".91" ry=".91"/>
    <rect class="cls-3" x="364.75" y="76.97" width="3.91" height="5.8" rx=".91" ry=".91"/>
    <rect class="cls-3" x="372.25" y="76.97" width="3.91" height="5.8" rx=".91" ry=".91"/>
    <rect class="cls-3" x="380.14" y="76.97" width="3.91" height="5.8" rx=".91" ry=".91"/>
    <rect class="cls-3" x="387.84" y="76.97" width="3.91" height="5.8" rx=".91" ry=".91"/>
    <rect class="cls-3" x="395.34" y="76.97" width="3.91" height="5.8" rx=".91" ry=".91"/>
    <rect class="cls-3" x="403.16" y="76.97" width="3.91" height="5.8" rx=".91" ry=".91"/>
    <rect class="cls-3" x="410.86" y="76.97" width="3.91" height="5.8" rx=".91" ry=".91"/>
    <rect class="cls-3" x="418.49" y="76.97" width="3.91" height="5.8" rx=".91" ry=".91"/>
    <rect class="cls-3" x="426.06" y="76.97" width="3.91" height="5.8" rx=".91" ry=".91"/>
  </g>
  <g>
    <ellipse class="cls-5" cx="438.87" cy="55.81" rx="3.68" ry="3.48"/>
    <line class="cls-1" x1="435.19" y1="63.92" x2="442.55" y2="63.92"/>
    <line class="cls-9" x1="435.19" y1="70.05" x2="442.55" y2="70.05"/>
    <line class="cls-9" x1="435.19" y1="76.19" x2="442.55" y2="76.19"/>
  </g>
  <circle class="cls-10" cx="344.24" cy="64.03" r="2.35"/>
  <rect class="cls-4" x="356.88" y="52.1" width="73.63" height="23.87" rx="2.59" ry="2.59"/>
  <text class="cls-8" transform="translate(383.56 72.09) scale(.8 1)"><tspan x="0" y="0">PCiné</tspan></text>
  <path class="cls-6" d="m374.84,62.77c-.09-.27-.34-1.14-.06-2.13.14-.5.37-.84.51-1.03.13-.16.65-.84,1.46-.87.56-.02.96.29,1.21.47.58.44.88,1.04,1.02,1.34.2-.18.62-.49,1.21-.55.2-.02.94-.08,1.59.55.36.36.53.77.57.87.46,1.18-.06,2.44-.13,2.6.21.25.72.93.83,1.97.04.34.11,1.11-.25,1.74-.21.36-.46.51-.95.79-.35.2-.82.42-1.4.55.21.89.02,1.85-.51,2.45-.79.9-1.86.46-2.03.39-.85-.35-1.55-1.34-1.4-1.81.14-.43.93-.2,1.21-.87.01-.03.15-.38.02-.65-.15-.32-.57-.3-.66-.3-.65.06-1.02.99-1.06,1.09-.22.12-.95.49-1.81.18-.65-.24-1.03-.74-1.19-.95-.45-.6-.61-1.24-.69-1.6-.11-.47-.24-1.03-.1-1.69.13-.58.41-.95.64-1.24.67-.84,1.47-1.18,1.98-1.32Z"/>
  <text class="cls-8" transform="translate(361.56 72.09) scale(.8 1)"><tspan x="0" y="0">P</tspan></text>
</svg>